<svg width="128" height="128" viewBox="0 0 128 128" fill="none" xmlns="http://www.w3.org/2000/svg">
<path d="M91.3873 79.7304H38.2713L10.913 76.8166C10.4943 76.5333 9.51641 75.5752 8.95479 74.0087C8.39317 72.4421 8.72078 68.6514 8.95479 66.9519C8.48686 65.7942 8.1717 62.8656 10.6545 60.4124C13.0637 58.0319 24.1868 55.6928 29.9228 54.7358C30.258 54.6799 30.5715 54.542 30.8409 54.3349C35.6592 51.1203 44.1572 45.1309 52.5432 42.8997C63.3991 40.0115 105.61 39.5128 107.101 39.7813C111.142 40.5088 110.698 40.3321 111.378 40.9148C111.922 41.381 112.395 41.6319 111.142 42.6025C114.114 46.2358 118.242 53.5488 118.37 54.8717C118.53 56.5254 117.57 61.7359 118.37 62.5361C119.17 63.3363 119.572 71.5813 119.459 71.9875C119.369 72.3125 118.871 72.5963 118.634 72.6976L91.3873 79.7304Z" fill="#998C46"/>
<path d="M91.3873 79.7304H38.2713L10.913 76.8166C10.4943 76.5333 9.51641 75.5752 8.95479 74.0087C8.39317 72.4421 8.72078 68.6514 8.95479 66.9519C8.48686 65.7942 8.1717 62.8656 10.6545 60.4124C13.0637 58.0319 24.1868 55.6928 29.9228 54.7358C30.258 54.6799 30.5715 54.542 30.8409 54.3349C35.6592 51.1203 44.1572 45.1309 52.5432 42.8997C63.3991 40.0115 105.61 39.5128 107.101 39.7813C111.142 40.5088 110.698 40.3321 111.378 40.9148C111.922 41.381 112.395 41.6319 111.142 42.6025C114.114 46.2358 118.242 53.5488 118.37 54.8717C118.53 56.5254 117.57 61.7359 118.37 62.5361C119.17 63.3363 119.572 71.5813 119.459 71.9875C119.369 72.3125 118.871 72.5963 118.634 72.6976L91.3873 79.7304Z" fill="url(#paint0_radial_119_4245)" style="mix-blend-mode:multiply"/>
<g style="mix-blend-mode:overlay" opacity="0.5">
<path d="M91.3873 79.7304H38.2713L10.913 76.8166C10.4943 76.5333 9.51641 75.5752 8.95479 74.0087C8.39317 72.4421 8.72078 68.6514 8.95479 66.9519C8.48686 65.7942 8.1717 62.8656 10.6545 60.4124C13.0637 58.0319 24.1868 55.6928 29.9228 54.7358C30.258 54.6799 30.5715 54.542 30.8409 54.3349C35.6592 51.1203 44.1572 45.1309 52.5432 42.8997C63.3991 40.0115 105.61 39.5128 107.101 39.7813C111.142 40.5088 110.698 40.3321 111.378 40.9148C111.922 41.381 112.395 41.6319 111.142 42.6025C114.114 46.2358 118.242 53.5488 118.37 54.8717C118.53 56.5254 117.57 61.7359 118.37 62.5361C119.17 63.3363 119.572 71.5813 119.459 71.9875C119.369 72.3125 118.871 72.5963 118.634 72.6976L91.3873 79.7304Z" fill="url(#paint1_linear_119_4245)"/>
</g>
<path d="M14.5741 74.0488C14.5428 74.5244 14.2108 74.936 13.7434 75.0295L11.1234 75.5539C10.6646 75.6457 10.2035 75.4072 10.0134 74.9797L8.68364 72.3163C8.52754 74.0719 8.58804 75.1721 8.57653 76.8314C8.57316 77.3172 8.75188 77.788 9.09729 78.1295C9.32124 78.351 9.59032 78.6007 9.84776 78.7981C10.9348 79.6318 12.3488 79.7303 13.3941 79.7303H38.9986V74.8687C38.9986 68.1008 33.525 62.6143 26.7729 62.6143C20.2957 62.6143 14.995 67.6632 14.5741 74.0488Z" fill="#998C46"/>
<g style="mix-blend-mode:multiply" opacity="0.8">
<path d="M14.5741 74.0488C14.5428 74.5244 14.2108 74.936 13.7434 75.0295L11.1234 75.5539C10.6646 75.6457 10.2035 75.4072 10.0134 74.9797L8.68364 72.3163C8.52754 74.0719 8.58804 75.1721 8.57653 76.8314C8.57316 77.3172 8.75188 77.788 9.09729 78.1295C9.32124 78.351 9.59032 78.6007 9.84776 78.7981C10.9348 79.6318 12.3488 79.7303 13.3941 79.7303H38.9986V74.8687C38.9986 68.1008 33.525 62.6143 26.7729 62.6143C20.2957 62.6143 14.995 67.6632 14.5741 74.0488Z" fill="url(#paint2_linear_119_4245)"/>
</g>
<g filter="url(#filter0_i_119_4245)">
<path d="M16.2097 75.5296V79.7301H37.3365V75.5296C37.3365 69.6819 32.6071 64.9414 26.7731 64.9414C20.9391 64.9414 16.2097 69.6819 16.2097 75.5296Z" fill="url(#paint3_linear_119_4245)"/>
</g>
<circle cx="26.7732" cy="75.9629" r="9.69943" fill="url(#paint4_radial_119_4245)"/>
<path fill-rule="evenodd" clip-rule="evenodd" d="M26.7731 81.9204C30.0633 81.9204 32.7306 79.2531 32.7306 75.9629C32.7306 72.6726 30.0633 70.0054 26.7731 70.0054C23.4828 70.0054 20.8156 72.6726 20.8156 75.9629C20.8156 79.2531 23.4828 81.9204 26.7731 81.9204ZM26.7728 73.8165C27.3759 73.8165 27.9042 73.0905 28.1975 72.0025C27.7526 71.8425 27.273 71.7552 26.7729 71.7552C26.2728 71.7552 25.7931 71.8425 25.3482 72.0026C25.6414 73.0905 26.1698 73.8165 26.7728 73.8165ZM28.6315 74.8897C28.33 74.3676 28.6943 73.5473 29.4895 72.7496C30.2212 73.3688 30.7386 74.2335 30.9146 75.2165C29.8258 75.5065 28.933 75.4119 28.6315 74.8897ZM28.6314 77.036C28.9329 76.5138 29.8258 76.4192 30.9146 76.7092C30.7386 77.6923 30.2212 78.557 29.4894 79.1762C28.6943 78.3785 28.33 77.5582 28.6314 77.036ZM26.7728 78.1091C27.3759 78.1091 27.9043 78.8352 28.1975 79.9232C27.7526 80.0833 27.273 80.1705 26.7729 80.1705C26.2728 80.1705 25.7931 80.0832 25.3481 79.9231C25.6414 78.8351 26.1697 78.1091 26.7728 78.1091ZM24.914 77.036C25.2154 77.5581 24.8512 78.3783 24.0562 79.176C23.3245 78.5567 22.8072 77.6921 22.6313 76.7091C23.7199 76.4193 24.6125 76.5139 24.914 77.036ZM24.9139 74.8897C24.6125 75.4119 23.7198 75.5065 22.6313 75.2167C22.8072 74.2337 23.3245 73.369 24.0561 72.7498C24.8511 73.5475 25.2153 74.3676 24.9139 74.8897Z" fill="url(#paint5_linear_119_4245)"/>
<path d="M90.2711 74.8687V79.7303H114.723C116.248 79.7303 117.425 79.1737 118.676 78.5884C119.459 78.222 119.962 77.4166 119.905 76.5539L119.682 73.162C119.649 72.6613 119.25 72.2625 118.749 72.2297L115.836 72.0391C114.965 71.9821 114.247 71.3595 113.939 70.5423C112.194 65.9093 107.729 62.6143 102.497 62.6143C95.7448 62.6143 90.2711 68.1008 90.2711 74.8687Z" fill="#998C46"/>
<g style="mix-blend-mode:multiply" opacity="0.8">
<path d="M90.2712 74.8687V79.7303H114.723C116.248 79.7303 117.425 79.1737 118.676 78.5884C119.459 78.222 119.962 77.4166 119.905 76.5539L119.682 73.162C119.649 72.6613 119.25 72.2625 118.749 72.2297L115.836 72.0391C114.965 71.9821 114.247 71.3595 113.939 70.5423C112.194 65.9093 107.73 62.6143 102.497 62.6143C95.7448 62.6143 90.2712 68.1008 90.2712 74.8687Z" fill="url(#paint6_linear_119_4245)"/>
</g>
<g filter="url(#filter1_i_119_4245)">
<path d="M91.9337 75.5296V79.7301H113.06V75.5296C113.06 69.6819 108.331 64.9414 102.497 64.9414C96.6631 64.9414 91.9337 69.6819 91.9337 75.5296Z" fill="url(#paint7_linear_119_4245)"/>
</g>
<circle cx="102.497" cy="75.9629" r="9.69943" fill="url(#paint8_radial_119_4245)"/>
<path fill-rule="evenodd" clip-rule="evenodd" d="M102.497 81.9204C105.787 81.9204 108.455 79.2531 108.455 75.9629C108.455 72.6726 105.787 70.0054 102.497 70.0054C99.2068 70.0054 96.5395 72.6726 96.5395 75.9629C96.5395 79.2531 99.2068 81.9204 102.497 81.9204ZM102.497 73.8165C103.1 73.8165 103.628 73.0905 103.921 72.0025C103.477 71.8425 102.997 71.7552 102.497 71.7552C101.997 71.7552 101.517 71.8425 101.072 72.0026C101.365 73.0905 101.894 73.8165 102.497 73.8165ZM104.355 74.8897C104.054 74.3676 104.418 73.5473 105.213 72.7496C105.945 73.3688 106.463 74.2335 106.639 75.2165C105.55 75.5065 104.657 75.4119 104.355 74.8897ZM104.355 77.036C104.657 76.5138 105.55 76.4192 106.639 76.7092C106.463 77.6923 105.945 78.557 105.213 79.1762C104.418 78.3785 104.054 77.5582 104.355 77.036ZM102.497 78.1091C103.1 78.1091 103.628 78.8352 103.921 79.9232C103.477 80.0833 102.997 80.1705 102.497 80.1705C101.997 80.1705 101.517 80.0832 101.072 79.9231C101.365 78.8351 101.894 78.1091 102.497 78.1091ZM100.638 77.036C100.939 77.5581 100.575 78.3783 99.7802 79.176C99.0485 78.5567 98.5312 77.6921 98.3553 76.7091C99.4438 76.4193 100.336 76.5139 100.638 77.036ZM100.638 74.8897C100.336 75.4119 99.4438 75.5065 98.3552 75.2167C98.5312 74.2337 99.0485 73.369 99.7801 72.7498C100.575 73.5475 100.939 74.3676 100.638 74.8897Z" fill="url(#paint9_linear_119_4245)"/>
<g style="mix-blend-mode:multiply" opacity="0.3">
<path d="M57.8872 59.695C57.764 59.6457 57.5007 59.0198 57.7425 58.7966C58.1399 58.4159 58.5896 58.3024 60.6846 58.1299C62.7795 57.9574 64.2952 58.0683 64.7265 58.1299C65.1578 58.1915 65.0099 58.6844 64.8621 58.7966C64.7142 58.9089 63.371 59.2143 62.5084 59.2882C62.2496 59.0787 61.4609 58.9678 60.8201 59.0541C60.1793 59.1404 59.9329 59.3622 59.7357 59.695C59.2428 59.8059 58.0105 59.7442 57.8872 59.695Z" fill="url(#paint10_linear_119_4245)"/>
</g>
<g style="mix-blend-mode:multiply" opacity="0.3">
<path d="M88.1333 56.5848C88.0101 56.5356 87.7468 55.9097 87.9886 55.6865C88.386 55.3058 88.8357 55.1923 90.9307 55.0198C93.0256 54.8473 94.5413 54.9581 94.9726 55.0198C95.4039 55.0814 95.256 55.5743 95.1081 55.6865C94.9603 55.7988 93.6171 56.1042 92.7545 56.1781C92.4957 55.9686 91.707 55.8577 91.0662 55.944C90.4254 56.0302 90.1789 56.2521 89.9818 56.5848C89.4889 56.6958 88.2566 56.6341 88.1333 56.5848Z" fill="url(#paint11_linear_119_4245)"/>
</g>
<g filter="url(#filter2_i_119_4245)">
<path d="M10.3745 71.6387C10.3177 71.0502 10.3934 69.8732 10.6211 69.4745C10.7045 69.2757 12.7095 68.0886 13.336 68.6771C13.9625 69.2656 13.2221 73.9359 13.0132 74.2396C12.8044 74.5434 11.5134 74.6383 11.2666 74.3915C11.0198 74.1447 10.4313 72.2273 10.3745 71.6387Z" fill="url(#paint12_linear_119_4245)"/>
</g>
<g filter="url(#filter3_i_119_4245)">
<path fill-rule="evenodd" clip-rule="evenodd" d="M10.6211 69.4745C10.3934 69.8732 10.3177 71.0502 10.3745 71.6387C10.4314 72.2273 11.0199 74.1447 11.2667 74.3915C11.5135 74.6383 12.8044 74.5434 13.0133 74.2396C13.0326 74.2116 13.0564 74.1462 13.0833 74.0502C12.6815 74.1793 11.9943 74.1875 11.831 74.0243C11.6158 73.8091 11.1027 72.1372 11.0531 71.624C11.0036 71.1108 11.0696 70.0845 11.2681 69.7369C11.3349 69.5777 12.8136 68.6924 13.4783 68.9453C13.442 68.8243 13.3951 68.7326 13.336 68.6771C12.7095 68.0886 10.7045 69.2757 10.6211 69.4745Z" fill="url(#paint13_linear_119_4245)"/>
</g>
<g style="mix-blend-mode:overlay" opacity="0.2">
<path fill-rule="evenodd" clip-rule="evenodd" d="M94.6984 49.4775L94.7205 49.6101C94.8712 50.514 95.4245 51.2065 96.0202 51.9521C96.0546 51.9952 96.0891 52.0383 96.1237 52.0818C96.7499 52.8679 97.3899 53.7201 97.5059 54.9099C97.5895 55.7662 97.5237 57.1956 97.4033 58.6778C97.2825 60.164 97.1055 61.716 96.9627 62.8245C96.9135 63.2067 96.6729 63.5311 96.3367 63.7064C93.5509 65.1597 91.7623 66.9182 90.6937 69.1088C89.6233 71.3029 89.2676 73.946 89.3771 77.1818L89.3823 77.3369H40.6209C40.0086 77.3369 39.5054 76.8572 39.4704 76.2473C39.3462 74.0863 39.2045 72.7719 38.7173 71.2222L38.712 71.2055L38.7107 71.188C38.5877 69.4737 38.4101 66.8154 38.2774 64.4117C38.145 62.0148 38.0561 59.8535 38.1134 59.1457C38.2272 57.7418 38.5629 56.5424 38.7194 56.1112L38.7526 56.0197L67.9446 53.9397L67.9462 53.9396L85.5607 52.4949L89.1669 50.3311L89.1859 50.3257C89.9749 50.1003 92.1464 49.6193 94.5643 49.485L94.6984 49.4775ZM67.5587 54.268L38.9695 56.305C38.8105 56.7783 38.5165 57.886 38.4125 59.17C38.3572 59.8519 38.4439 61.9866 38.5769 64.3951C38.7091 66.7887 38.8858 69.4353 39.0087 71.149C39.5032 72.7281 39.6458 74.0711 39.7699 76.2301C39.7959 76.6826 40.169 77.0369 40.6209 77.0369H66.4193C66.2295 71.2353 65.8808 59.4865 65.9695 57.7565C66.0478 56.2301 66.9322 54.9371 67.5587 54.268ZM66.7195 77.0369H89.0723C88.9785 73.8467 89.3409 71.1977 90.424 68.9773C91.5264 66.7174 93.3678 64.9168 96.198 63.4404C96.4527 63.3075 96.6292 63.065 96.6651 62.7862C96.8075 61.6809 96.9839 60.1337 97.1042 58.6535C97.2249 57.1692 97.2879 55.7651 97.2074 54.939C97.1007 53.8459 96.5157 53.0555 95.889 52.2687C95.8509 52.2207 95.8125 52.1728 95.774 52.1247C95.2159 51.4272 94.6432 50.7114 94.4496 49.7922C92.1288 49.9337 90.0587 50.3906 89.2873 50.6088L85.655 52.7882L68.0189 54.2347C67.4483 54.7489 66.3535 56.1267 66.2691 57.7719C66.1812 59.4865 66.5294 71.228 66.7195 77.0369Z" fill="black"/>
</g>
<g filter="url(#filter4_i_119_4245)">
<path d="M9.03003 62.6038C9.22265 62.3944 11.0429 61.8816 11.929 61.6514L11.2999 64.5228C11.0014 64.6146 10.3203 64.8763 9.98451 65.1884C9.6487 65.5006 9.15712 66.4946 8.95331 66.9527C8.77145 66.564 8.41634 65.5891 8.45072 64.7983C8.4937 63.8098 8.78926 62.8655 9.03003 62.6038Z" fill="url(#paint14_linear_119_4245)"/>
</g>
<path d="M10.8596 62.4742C10.7144 63.2744 10.661 64.0237 10.7721 64.9384C10.8462 65.5483 11.495 65.881 12.0633 65.6475C13.1617 65.1962 14.6047 64.5952 15.5554 64.1742C16.2771 63.8546 17.3596 62.977 18.3737 62.0572C19.0852 61.4118 18.5113 60.3022 17.5649 60.4669C15.2802 60.8646 13.5389 61.2101 11.5645 61.7257C11.2047 61.8196 10.9259 62.1083 10.8596 62.4742Z" fill="url(#paint15_linear_119_4245)"/>
<path d="M112.319 57.2187C111.577 56.9221 109.303 54.6724 109.279 54.0545C109.279 53.486 110.786 52.9668 114 52.7443C116.571 52.5664 117.774 52.8185 118.054 52.9668C118.301 53.3952 118.791 54.3709 118.771 54.8455C118.751 55.3201 118.664 56.6254 118.623 57.2187C116.769 57.3175 112.912 57.4559 112.319 57.2187Z" fill="url(#paint16_linear_119_4245)"/>
<path fill-rule="evenodd" clip-rule="evenodd" d="M118.137 53.1148C118.397 53.5902 118.789 54.4194 118.771 54.8452C118.754 55.2446 118.69 56.2322 118.645 56.8888C117.223 56.9324 115.703 56.9405 115.379 56.8108C114.774 56.5691 113.921 54.7359 113.901 54.2323C113.901 53.769 114.13 53.3459 116.749 53.1646C117.282 53.1277 117.743 53.1135 118.137 53.1148Z" fill="url(#paint17_linear_119_4245)"/>
<path d="M53.4944 44.0791C49.1737 45.063 39.8806 50.9226 35.3645 54.0028C35.0928 54.1881 34.9316 54.4959 34.9316 54.8247V55.1717C34.9316 55.63 35.2433 56.0297 35.6879 56.1415L39.3622 57.0651C39.7842 57.1712 40.2207 57.2077 40.6545 57.1732L86.827 53.5C87.3744 53.4565 87.8993 53.2635 88.3446 52.9422L90.8984 51.0992C91.3066 50.8046 91.7824 50.6175 92.2819 50.5551L94.7948 50.241C95.1537 50.1961 95.5177 50.2165 95.8694 50.3012L99.8624 51.263C100.463 51.4076 101.093 51.3635 101.667 51.1367L107.488 48.8375C108.11 48.5915 108.32 47.815 107.906 47.2889L104.902 43.4715C104.251 42.6448 103.302 42.1085 102.252 42.041C100.091 41.9019 96.1941 41.7722 90.5642 41.8736C81.0557 42.0449 59.0742 42.8084 53.4944 44.0791Z" fill="url(#paint18_linear_119_4245)"/>
<path d="M67.2807 43.5769L65.9037 54.0844L45.5051 55.7872L44.3818 49.9176C46.8819 48.4562 52.3312 45.3958 54.1283 44.8451C55.9254 44.2944 63.6453 43.7702 67.2807 43.5769Z" fill="url(#paint19_linear_119_4245)"/>
<path d="M41.3145 54.0994C41.3145 53.6508 41.3145 52.8472 41.7281 52.6268C42.252 52.3477 43.4182 51.7316 43.8924 51.5006L43.8963 51.4988C44.4891 51.21 45.3699 50.7809 46.4841 51.7894C47.6008 52.8001 47.077 55.5434 46.8427 55.7023C45.7441 56.4467 42.2933 55.9043 41.8522 55.5867C41.411 55.2691 41.3144 54.6916 41.3145 54.0996V54.0994Z" fill="url(#paint20_linear_119_4245)"/>
<path d="M69.1841 53.745L69.9485 43.5066L90.9494 42.8394L91.5737 49.7208C90.4469 50.5461 88.0409 52.2443 87.4315 52.4347C86.822 52.6252 75.0126 53.3876 69.1841 53.745Z" fill="url(#paint21_linear_119_4245)"/>
<path d="M95.3206 49.39L93.6416 42.8198H101.953C102.881 42.8198 103.756 43.2491 104.324 43.9826L106.61 46.9335C107.022 47.4651 106.802 48.2435 106.173 48.4813L101.244 50.3445C100.667 50.5626 100.037 50.5976 99.4394 50.4446L95.3206 49.39Z" fill="url(#paint22_linear_119_4245)"/>
<path fill-rule="evenodd" clip-rule="evenodd" d="M59.3098 54.6347C60.3172 50.8484 61.4787 46.7608 61.814 46.5372C62.4073 46.1417 65.2748 46.1911 65.7198 46.9327C65.97 47.3497 65.5346 50.9019 65.0591 54.1547L59.3098 54.6347Z" fill="url(#paint23_linear_119_4245)"/>
<path fill-rule="evenodd" clip-rule="evenodd" d="M90.6807 50.3642C89.4784 51.218 87.9073 52.2859 87.4315 52.4346C87.2601 52.4882 86.2029 52.5869 84.642 52.7092C85.6616 48.8668 86.8594 44.6337 87.2009 44.4061C87.7942 44.0106 90.6616 44.06 91.1066 44.8016C91.1166 44.8182 91.1255 44.8397 91.1333 44.8659L91.1796 45.3766C91.1845 46.3358 90.9628 48.2931 90.6807 50.3642Z" fill="url(#paint24_linear_119_4245)"/>
<defs>
<filter id="filter0_i_119_4245" x="16.2097" y="64.9414" width="21.1267" height="15.4729" filterUnits="userSpaceOnUse" color-interpolation-filters="sRGB">
<feFlood flood-opacity="0" result="BackgroundImageFix"/>
<feBlend mode="normal" in="SourceGraphic" in2="BackgroundImageFix" result="shape"/>
<feColorMatrix in="SourceAlpha" type="matrix" values="0 0 0 0 0 0 0 0 0 0 0 0 0 0 0 0 0 0 127 0" result="hardAlpha"/>
<feOffset dy="0.68406"/>
<feGaussianBlur stdDeviation="1.36812"/>
<feComposite in2="hardAlpha" operator="arithmetic" k2="-1" k3="1"/>
<feColorMatrix type="matrix" values="0 0 0 0 1 0 0 0 0 1 0 0 0 0 1 0 0 0 0.1 0"/>
<feBlend mode="normal" in2="shape" result="effect1_innerShadow_119_4245"/>
</filter>
<filter id="filter1_i_119_4245" x="91.9337" y="64.9414" width="21.1267" height="15.4729" filterUnits="userSpaceOnUse" color-interpolation-filters="sRGB">
<feFlood flood-opacity="0" result="BackgroundImageFix"/>
<feBlend mode="normal" in="SourceGraphic" in2="BackgroundImageFix" result="shape"/>
<feColorMatrix in="SourceAlpha" type="matrix" values="0 0 0 0 0 0 0 0 0 0 0 0 0 0 0 0 0 0 127 0" result="hardAlpha"/>
<feOffset dy="0.68406"/>
<feGaussianBlur stdDeviation="1.36812"/>
<feComposite in2="hardAlpha" operator="arithmetic" k2="-1" k3="1"/>
<feColorMatrix type="matrix" values="0 0 0 0 1 0 0 0 0 1 0 0 0 0 1 0 0 0 0.1 0"/>
<feBlend mode="normal" in2="shape" result="effect1_innerShadow_119_4245"/>
</filter>
<filter id="filter2_i_119_4245" x="10.3564" y="68.5149" width="3.22607" height="6.70139" filterUnits="userSpaceOnUse" color-interpolation-filters="sRGB">
<feFlood flood-opacity="0" result="BackgroundImageFix"/>
<feBlend mode="normal" in="SourceGraphic" in2="BackgroundImageFix" result="shape"/>
<feColorMatrix in="SourceAlpha" type="matrix" values="0 0 0 0 0 0 0 0 0 0 0 0 0 0 0 0 0 0 127 0" result="hardAlpha"/>
<feOffset dy="0.68406"/>
<feGaussianBlur stdDeviation="1.36812"/>
<feComposite in2="hardAlpha" operator="arithmetic" k2="-1" k3="1"/>
<feColorMatrix type="matrix" values="0 0 0 0 1 0 0 0 0 1 0 0 0 0 1 0 0 0 0.1 0"/>
<feBlend mode="normal" in2="shape" result="effect1_innerShadow_119_4245"/>
</filter>
<filter id="filter3_i_119_4245" x="10.3564" y="68.5149" width="3.12189" height="7.01733" filterUnits="userSpaceOnUse" color-interpolation-filters="sRGB">
<feFlood flood-opacity="0" result="BackgroundImageFix"/>
<feBlend mode="normal" in="SourceGraphic" in2="BackgroundImageFix" result="shape"/>
<feColorMatrix in="SourceAlpha" type="matrix" values="0 0 0 0 0 0 0 0 0 0 0 0 0 0 0 0 0 0 127 0" result="hardAlpha"/>
<feOffset dy="1"/>
<feGaussianBlur stdDeviation="2"/>
<feComposite in2="hardAlpha" operator="arithmetic" k2="-1" k3="1"/>
<feColorMatrix type="matrix" values="0 0 0 0 1 0 0 0 0 1 0 0 0 0 1 0 0 0 0.1 0"/>
<feBlend mode="normal" in2="shape" result="effect1_innerShadow_119_4245"/>
</filter>
<filter id="filter4_i_119_4245" x="8.44839" y="61.6514" width="3.48056" height="6.30127" filterUnits="userSpaceOnUse" color-interpolation-filters="sRGB">
<feFlood flood-opacity="0" result="BackgroundImageFix"/>
<feBlend mode="normal" in="SourceGraphic" in2="BackgroundImageFix" result="shape"/>
<feColorMatrix in="SourceAlpha" type="matrix" values="0 0 0 0 0 0 0 0 0 0 0 0 0 0 0 0 0 0 127 0" result="hardAlpha"/>
<feOffset dy="1"/>
<feGaussianBlur stdDeviation="2"/>
<feComposite in2="hardAlpha" operator="arithmetic" k2="-1" k3="1"/>
<feColorMatrix type="matrix" values="0 0 0 0 1 0 0 0 0 1 0 0 0 0 1 0 0 0 0.1 0"/>
<feBlend mode="normal" in2="shape" result="effect1_innerShadow_119_4245"/>
</filter>
<radialGradient id="paint0_radial_119_4245" cx="0" cy="0" r="1" gradientUnits="userSpaceOnUse" gradientTransform="translate(62.9062 47.4884) rotate(88.1877) scale(36.3187 109.211)">
<stop offset="0.504575" stop-color="white"/>
<stop offset="0.708333" stop-color="#AAAAAA" stop-opacity="0.8"/>
<stop offset="1" stop-opacity="0.35"/>
</radialGradient>
<linearGradient id="paint1_linear_119_4245" x1="62.7412" y1="41.1711" x2="64.0548" y2="83.7889" gradientUnits="userSpaceOnUse">
<stop stop-color="white"/>
<stop offset="0.403193" stop-color="white" stop-opacity="0"/>
</linearGradient>
<linearGradient id="paint2_linear_119_4245" x1="23.7864" y1="62.6143" x2="23.7864" y2="79.7303" gradientUnits="userSpaceOnUse">
<stop stop-color="#AFAFAF"/>
<stop offset="1" stop-color="#2F2F2F"/>
</linearGradient>
<linearGradient id="paint3_linear_119_4245" x1="26.7731" y1="67.7436" x2="26.7731" y2="77.4801" gradientUnits="userSpaceOnUse">
<stop/>
<stop offset="0.776042" stop-color="#1D1D1D"/>
<stop offset="1" stop-color="#262626"/>
</linearGradient>
<radialGradient id="paint4_radial_119_4245" cx="0" cy="0" r="1" gradientUnits="userSpaceOnUse" gradientTransform="translate(26.7732 75.9629) rotate(90) scale(9.69943)">
<stop offset="0.65625" stop-color="#393939"/>
<stop offset="0.786458" stop-color="#3A3A3A"/>
<stop offset="1" stop-color="#1E1E1E"/>
</radialGradient>
<linearGradient id="paint5_linear_119_4245" x1="26.5507" y1="69.3457" x2="26.4581" y2="81.9199" gradientUnits="userSpaceOnUse">
<stop stop-color="white"/>
<stop offset="1" stop-color="#ACACAC"/>
</linearGradient>
<linearGradient id="paint6_linear_119_4245" x1="105.09" y1="62.6143" x2="105.09" y2="77.3904" gradientUnits="userSpaceOnUse">
<stop stop-color="#AFAFAF"/>
<stop offset="1" stop-color="#2F2F2F"/>
</linearGradient>
<linearGradient id="paint7_linear_119_4245" x1="102.497" y1="67.7436" x2="102.497" y2="77.4801" gradientUnits="userSpaceOnUse">
<stop/>
<stop offset="0.776042" stop-color="#1D1D1D"/>
<stop offset="1" stop-color="#262626"/>
</linearGradient>
<radialGradient id="paint8_radial_119_4245" cx="0" cy="0" r="1" gradientUnits="userSpaceOnUse" gradientTransform="translate(102.497 75.9629) rotate(90) scale(9.69943)">
<stop offset="0.65625" stop-color="#393939"/>
<stop offset="0.786458" stop-color="#3A3A3A"/>
<stop offset="1" stop-color="#1E1E1E"/>
</radialGradient>
<linearGradient id="paint9_linear_119_4245" x1="102.275" y1="69.3457" x2="102.182" y2="81.9199" gradientUnits="userSpaceOnUse">
<stop stop-color="white"/>
<stop offset="1" stop-color="#ACACAC"/>
</linearGradient>
<linearGradient id="paint10_linear_119_4245" x1="61.1677" y1="58.1044" x2="61.3276" y2="59.7571" gradientUnits="userSpaceOnUse">
<stop stop-color="#797979"/>
<stop offset="1" stop-color="#434343"/>
</linearGradient>
<linearGradient id="paint11_linear_119_4245" x1="91.4138" y1="54.9943" x2="91.5737" y2="56.647" gradientUnits="userSpaceOnUse">
<stop stop-color="#797979"/>
<stop offset="1" stop-color="#434343"/>
</linearGradient>
<linearGradient id="paint12_linear_119_4245" x1="11.9695" y1="69.6551" x2="11.9695" y2="73.6167" gradientUnits="userSpaceOnUse">
<stop/>
<stop offset="0.776042" stop-color="#1D1D1D"/>
<stop offset="1" stop-color="#262626"/>
</linearGradient>
<linearGradient id="paint13_linear_119_4245" x1="11.9149" y1="69.3023" x2="11.9149" y2="74.5322" gradientUnits="userSpaceOnUse">
<stop stop-color="#616161"/>
<stop offset="1" stop-color="#303030"/>
</linearGradient>
<linearGradient id="paint14_linear_119_4245" x1="10.186" y1="62.3451" x2="11.5163" y2="65.9384" gradientUnits="userSpaceOnUse">
<stop stop-color="#616161"/>
<stop offset="1" stop-color="#303030"/>
</linearGradient>
<linearGradient id="paint15_linear_119_4245" x1="16.7347" y1="59.3373" x2="16.7153" y2="67.1101" gradientUnits="userSpaceOnUse">
<stop stop-color="#242424"/>
<stop offset="1"/>
</linearGradient>
<linearGradient id="paint16_linear_119_4245" x1="114.025" y1="52.6831" x2="114.025" y2="57.3497" gradientUnits="userSpaceOnUse">
<stop stop-color="#434343"/>
<stop offset="1" stop-color="#222222"/>
</linearGradient>
<linearGradient id="paint17_linear_119_4245" x1="116.313" y1="52.5718" x2="116.058" y2="56.9011" gradientUnits="userSpaceOnUse">
<stop stop-color="#FF3232"/>
<stop offset="1" stop-color="#7C0B0B"/>
</linearGradient>
<linearGradient id="paint18_linear_119_4245" x1="72.0241" y1="41.8239" x2="72.0241" y2="56.2681" gradientUnits="userSpaceOnUse">
<stop stop-color="#373737"/>
<stop offset="1"/>
</linearGradient>
<linearGradient id="paint19_linear_119_4245" x1="54.8663" y1="43.7612" x2="54.8663" y2="55.8361" gradientUnits="userSpaceOnUse">
<stop offset="0.0001" stop-color="#CFFAF7"/>
<stop offset="1" stop-color="#80ABA8"/>
</linearGradient>
<linearGradient id="paint20_linear_119_4245" x1="44.2432" y1="51.1562" x2="44.2432" y2="56.0767" gradientUnits="userSpaceOnUse">
<stop stop-color="#434343"/>
<stop offset="1" stop-color="#222222"/>
</linearGradient>
<linearGradient id="paint21_linear_119_4245" x1="79.4354" y1="43.029" x2="79.4354" y2="53.7886" gradientUnits="userSpaceOnUse">
<stop offset="0.0001" stop-color="#CFFAF7"/>
<stop offset="1" stop-color="#80ABA8"/>
</linearGradient>
<linearGradient id="paint22_linear_119_4245" x1="99.9588" y1="42.9385" x2="99.9588" y2="50.7111" gradientUnits="userSpaceOnUse">
<stop offset="0.0001" stop-color="#CFFAF7"/>
<stop offset="1" stop-color="#80ABA8"/>
</linearGradient>
<linearGradient id="paint23_linear_119_4245" x1="61.9988" y1="46.292" x2="61.9988" y2="58.8971" gradientUnits="userSpaceOnUse">
<stop offset="0.0001" stop-color="#A6DAD6"/>
<stop offset="1" stop-color="#5F918D"/>
</linearGradient>
<linearGradient id="paint24_linear_119_4245" x1="87.3857" y1="44.1609" x2="87.3857" y2="56.766" gradientUnits="userSpaceOnUse">
<stop offset="0.0001" stop-color="#A6DAD6"/>
<stop offset="1" stop-color="#5F918D"/>
</linearGradient>
</defs>
</svg>
